<svg xmlns="http://www.w3.org/2000/svg">
  <symbol id="regular-branch" viewBox="0 0 24 24" fill="none">
    <path
      d="M20 2V1H16V2H15V6H16V7H17V11H7V7H8V6H9V2H8V1H4V2H3V6H4V7H5V17H4V18H3V22H4V23H8V22H9V18H8V17H7V13H19V7H20V6H21V2H20ZM5 3H7V5H5V3ZM7 21H5V19H7V21ZM19 5H17V3H19V5Z"
      fill="currentColor" />
  </symbol>
  <symbol id="regular-code-block" viewBox="0 0 16 16" fill="none">
    <path
    d="M9.33333 6.66663H8.66667V5.33329H9.33333V4.66663H10V3.99996H10.6667V3.33329H10V2.66663H9.33333V1.99996H8.66667V0.666626H9.33333V1.33329H10V1.99996H10.6667V2.66663H11.3333V3.33329H12V3.99996H11.3333V4.66663H10.6667V5.33329H10V5.99996H9.33333V6.66663Z"
    fill="currentColor" />
    <path
    d="M1.33333 3.99996H0.666668V3.33329H1.33333V2.66663H2V1.99996H2.66667V1.33329H3.33333V0.666626H4V1.99996H3.33333V2.66663H2.66667V3.33329H2V3.99996H2.66667V4.66663H3.33333V5.33329H4V6.66663H3.33333V5.99996H2.66667V5.33329H2V4.66663H1.33333V3.99996Z"
      fill="currentColor" />
    <path
      d="M5.33333 6.66663H4.66667V5.33329H5.33333V3.99996H6V2.66663H6.66667V1.33329H7.33333V0.666626H8V1.99996H7.33333V3.33329H6.66667V4.66663H6V5.99996H5.33333V6.66663Z"
      fill="currentColor" />
    <path
      d="M15.3333 3.33329V14.6666H14.6667V15.3333H1.33333V14.6666H0.666668V5.99996H1.33333V6.66663H2V14H14V3.99996H12.6667V2.66663H14.6667V3.33329H15.3333Z"
      fill="currentColor" />
  </symbol>

  <svg id="regular-face-grin" viewBox="0 0 16 16" fill="none">
    <path
      d="M10.6667 9.33337V10H5.33333V9.33337H4V11.3334H4.66667V12H5.33333V12.6667H10.6667V12H11.3333V11.3334H12V9.33337H10.6667ZM10 11.3334V12H6.66667V11.3334H7.33333V10.6667H10.6667V11.3334H10Z"
      fill="currentColor" />
    <path
      d="M14.6667 5.99996V4.66663H14V3.33329H13.3333V2.66663H12.6667V1.99996H11.3333V1.33329H10V0.666626H6.00001V1.33329H4.66667V1.99996H3.33334V2.66663H2.66667V3.33329H2.00001V4.66663H1.33334V5.99996H0.666672V9.99996H1.33334V11.3333H2.00001V12.6666H2.66667V13.3333H3.33334V14H4.66667V14.6666H6.00001V15.3333H10V14.6666H11.3333V14H12.6667V13.3333H13.3333V12.6666H14V11.3333H14.6667V9.99996H15.3333V5.99996H14.6667ZM14 9.99996H13.3333V11.3333H12.6667V12H12V12.6666H11.3333V13.3333H10V14H6.00001V13.3333H4.66667V12.6666H4.00001V12H3.33334V11.3333H2.66667V9.99996H2.00001V5.99996H2.66667V4.66663H3.33334V3.99996H4.00001V3.33329H4.66667V2.66663H6.00001V1.99996H10V2.66663H11.3333V3.33329H12V3.99996H12.6667V4.66663H13.3333V5.99996H14V9.99996Z"
      fill="currentColor" />
    <path d="M6.66667 5.33337H4.66667V7.33337H6.66667V5.33337Z" fill="currentColor" />
    <path d="M11.3333 5.33337H9.33333V7.33337H11.3333V5.33337Z" fill="currentColor" />
  </svg>


  <svg id="regular-lock-open" viewBox="0 0 48 48" fill="none" xmlns="http://www.w3.org/2000/svg">
    <path d="M44 10V6H42V4H38V2H30V4H26V6H24V10H22V22H4V24H2V44H4V46H34V44H36V24H34V22H26V10H28V8H30V6H38V8H40V10H42V22H46V10H44ZM32 26V42H6V26H32Z" fill="currentColor"/>
  </svg>

</svg>